<?xml version="1.0" encoding="UTF-8"?><svg id="Layer_2" xmlns="http://www.w3.org/2000/svg" viewBox="0 0 35.25 35.25"><defs><style>.cls-1{fill:#ffe700;}</style></defs><g id="Layer_1-2"><g><circle class="cls-1" cx="17.62" cy="17.62" r="17.62"/><g><path d="M17.79,26.62c-.75,0-1.49-.03-2.23-.13-.11-.02-.2,0-.3,.07-1.47,1.03-2.93,2.06-4.45,3.02-.18,.12-.38,.22-.57,.33-.07,.04-.14,.06-.22,.07-.24,.03-.38-.11-.33-.35,.09-.42,.22-.84,.33-1.25,.3-1.05,.6-2.1,.9-3.14,.03-.09,.02-.14-.08-.18-1.43-.72-2.69-1.67-3.72-2.9-1.02-1.22-1.7-2.6-1.95-4.18-.28-1.8,.04-3.51,.91-5.11,.85-1.57,2.08-2.78,3.56-3.75,1.58-1.03,3.32-1.67,5.18-2.01,1.38-.25,2.77-.31,4.17-.18,2.63,.24,5.06,1.05,7.19,2.63,1.42,1.05,2.56,2.34,3.26,3.97,1.11,2.62,.88,5.15-.6,7.57-.95,1.55-2.28,2.71-3.84,3.61-1.49,.86-3.1,1.41-4.8,1.69-.81,.14-1.62,.21-2.44,.21Z"/><path class="cls-1" d="M23.61,16.07s.05-.08,.08-.11c.62-.62,1.23-1.24,1.85-1.85,.23-.23,.52-.27,.79-.1,.28,.17,.42,.49,.33,.78-.03,.11-.1,.2-.18,.28-.51,.51-1.01,1.01-1.52,1.51-.07,.07-.07,.11-.01,.18,.56,.74,1.13,1.49,1.69,2.23,.24,.33,.21,.74-.07,1-.32,.29-.8,.24-1.06-.11-.5-.66-1-1.32-1.5-1.99-.01-.02-.02-.04-.04-.05-.06-.06-.08-.17-.17-.17-.07,0-.24,.25-.24,.34,0,.5,0,.99,0,1.49,0,.35-.25,.62-.6,.69-.31,.06-.64-.11-.78-.41-.04-.1-.07-.2-.07-.31,0-1.64,0-3.28,0-4.92,0-.41,.32-.73,.72-.73,.4,0,.72,.32,.72,.73,0,.47,0,.94,0,1.41v.1s.03,.02,.04,.03Z"/><path class="cls-1" d="M14.98,18.93c-.33,0-.67,0-1,0-.08,0-.11,.02-.14,.09-.08,.24-.18,.47-.27,.71-.14,.36-.39,.51-.78,.45-.51-.07-.68-.33-.57-.85,.07-.32,.21-.62,.32-.93,.49-1.29,.98-2.58,1.47-3.87,.14-.38,.41-.63,.81-.71,.45-.09,.93,.2,1.11,.67,.27,.7,.54,1.41,.81,2.12,.3,.79,.61,1.59,.91,2.38,.08,.22,.14,.45,.11,.69-.02,.21-.12,.35-.32,.43-.15,.05-.3,.09-.45,.08-.29-.02-.5-.13-.6-.43-.08-.24-.18-.48-.27-.72-.03-.08-.06-.11-.15-.11-.33,0-.66,0-.99,0Z"/><path class="cls-1" d="M9.97,17.41c0-.68,0-1.37,0-2.05,0-.11-.02-.15-.14-.14-.32,0-.64,0-.96,0-.42,0-.73-.3-.73-.7,0-.4,.31-.72,.73-.72,1.22,0,2.44,0,3.66,0,.38,0,.69,.27,.73,.63,.04,.35-.18,.67-.53,.76-.07,.02-.14,.02-.22,.02-.32,0-.64,0-.96,0-.11,0-.13,.03-.13,.13,0,1.37,0,2.73,0,4.1,0,.36-.18,.63-.5,.73-.48,.15-.95-.18-.95-.69,0-.69,0-1.38,0-2.07Z"/><path class="cls-1" d="M18.14,16.96c0-.81,0-1.63,0-2.44,0-.38,.27-.67,.66-.72,.35-.04,.69,.19,.79,.54,.02,.09,.02,.18,.02,.27,0,1.34,0,2.68,0,4.02,0,.11,.03,.14,.14,.14,.47,0,.94,0,1.41,0,.37,0,.66,.28,.68,.62,.02,.36-.27,.69-.63,.69-.81,0-1.63,0-2.44,0-.35,0-.63-.31-.63-.67,0-.82,0-1.64,0-2.45Z"/><path d="M14.98,15.6c.25,.7,.48,1.37,.72,2.05h-.91c-.14,0-.28,0-.42,0-.09,0-.11-.02-.07-.1,.19-.52,.37-1.04,.55-1.56,.04-.12,.08-.23,.14-.39Z"/></g></g></g></svg>