<svg xmlns="http://www.w3.org/2000/svg" viewBox="0 0 155.15 186.48"><defs><style>.cls-1{fill:#f08ba5;}</style></defs><title>Asset 2</title><g id="Layer_2" data-name="Layer 2"><g id="Layer_1-2" data-name="Layer 1"><path class="cls-1" d="M29.09.09l-.15,63.39a21.29,21.29,0,0,0,42.58,0l.07-61.09c0-.77,0-1.53,0-2.3H103q0,22.28,0,44.55c0,9.74.26,19.48.21,29.25-.09,19.39.5,39.84-12.42,55.78a52.33,52.33,0,0,1-21.92,15.52C56.3,150,28.94,149,28.94,149s.09-10.57,0-15.68c0,.13,12.8.11,14,.07a42.7,42.7,0,0,0,14.16-2.56c8.11-3.17,13.63-10.36,16-18.6A33.46,33.46,0,0,0,73.9,109a25.64,25.64,0,0,0,.63-7.65c-.78.3-1.91.68-2.71,1-1,.36-2,.68-3,1a51.2,51.2,0,0,1-6.14,1.32,80,80,0,0,1-12.84.81C35.67,105.27,22,102,12.09,91.21A41,41,0,0,1,3.62,77.27C-1,64.33.24,50.27.08,36.79Q-.1,21.17.09,5.56C.09,5.28.14.09.16.09Z"/><path d="M154.77,0,127.56.09V83.9c0,15.72-2,32.36-9.16,46.71C110.27,147,96.26,155.52,79.8,162.1c-15.91,6.37-31.62,8.46-50.86,8.5v15.68c0,.63,21.25-.44,23-.53,33.65-1.74,69.58-12.83,89.35-42,11.32-16.73,13.47-36.15,13.4-55.91-.06-18.46.68-36.93.4-55.39C155.06,30.68,154.92,0,154.77,0Z"/></g></g></svg>