<?xml version="1.0" encoding="UTF-8"?><svg id="Layer_2" xmlns="http://www.w3.org/2000/svg" xmlns:xlink="http://www.w3.org/1999/xlink" viewBox="0 0 35.25 34.92"><defs><style>.cls-1{fill:#3cae43;}.cls-2{fill:#fff;}.cls-3{clip-path:url(#clippath);}.cls-4{fill:none;}</style><clipPath id="clippath"><rect class="cls-4" width="35.25" height="34.92"/></clipPath></defs><g id="Layer_1-2"><g class="cls-3"><path class="cls-1" d="M17.46,0h.33C27.43,0,35.25,7.82,35.25,17.46h0c0,9.64-7.82,17.46-17.46,17.46h-.33C7.82,34.92,0,27.1,0,17.46H0C0,7.82,7.82,0,17.46,0Z"/><path class="cls-2" d="M27.86,10.54h0s-2.11-1.95-2.11-1.95c-.46-.49-1.11-.81-1.83-.81H9.88c-1.38,0-2.51,1.13-2.51,2.51v15.49c0,.43,.08,.75,.24,.98,.06,.08,.12,.15,.2,.2l2.02,1.86s.06,.07,.1,.09l.02,.02h0s.06,.05,.1,.07c.12,.06,.25,.09,.4,.09,.37,0,.7-.22,.76-.26l2.36-2.41c.5-.6,1.85-.74,2.32-.74h10.17c1.38,0,2.51-1.13,2.51-2.51V12.27c0-.67-.27-1.27-.7-1.72m-2.27,.05v10.62c0,.92-.75,1.67-1.67,1.67H13.75c-.22,0-2.13,.03-2.94,1.02l-.47,.48-.84,.86-.93,.96c-.07,.04-.18,.09-.26,.09h-.01s-.09-.09-.09-.5V10.3c0-.92,.75-1.67,1.67-1.67h14.05c.73,0,1.35,.48,1.57,1.13,.06,.17,.1,.35,.1,.54v.29Z"/><path class="cls-2" d="M12.89,13.03c-.69,0-1.25,.56-1.25,1.25v2.63c0,.69,.56,1.25,1.25,1.25s1.25-.56,1.25-1.25v-2.63c0-.69-.56-1.25-1.25-1.25"/><path class="cls-2" d="M20.68,13.03c-.69,0-1.25,.56-1.25,1.25v2.63c0,.69,.56,1.25,1.25,1.25s1.25-.56,1.25-1.25v-2.63c0-.69-.56-1.25-1.25-1.25"/></g></g></svg>