<?xml version="1.0" encoding="UTF-8"?><svg id="Layer_2" xmlns="http://www.w3.org/2000/svg" viewBox="0 0 45.75 36.95"><defs><style>.cls-1{fill:none;stroke:#3a3a3a;stroke-miterlimit:10;stroke-width:.75px;}</style></defs><g id="Layer_1-2"><g><g><path class="cls-1" d="M15.05,30.69c.03,.14,.05,.3,.07,.45h.01c-.02-.14-.04-.3-.08-.45Zm-9.71,.45h.01c.02-.16,.04-.31,.07-.45-.04,.16-.06,.31-.08,.45Z"/><path class="cls-1" d="M5.32,31.66c0,.18,.01,.34,.02,.52H.38v-10.26H1.41v9.22h3.93c-.01,.18-.02,.34-.02,.52Z"/><path class="cls-1" d="M.38,.38V21.92H30.71V.38H.38ZM29.68,20.89H1.41V1.41H29.68V20.89Z"/><path class="cls-1" d="M31.81,31.66c0,.18,.01,.34,.02,.52H15.13c.01-.18,.02-.34,.02-.52s-.01-.34-.02-.52H31.83c-.01,.18-.02,.34-.02,.52Z"/><path class="cls-1" d="M45.38,16.51v15.68h-3.76c.01-.18,.02-.34,.02-.52s-.01-.34-.02-.52h2.73v-14.21l-5.27-5.27h-8.35v-1.03h8.78l5.88,5.87Z"/><path class="cls-1" d="M44.34,16.94v14.21h-2.73c-.12-1.1-.6-2.08-1.31-2.84-.07-.07-.14-.14-.22-.22-.03-.04-.07-.07-.11-.1-.09-.08-.19-.17-.29-.24-.12-.09-.25-.18-.37-.25-.12-.08-.25-.16-.38-.22-.13-.07-.27-.13-.41-.19-.13-.06-.28-.1-.42-.14-.01-.01-.03-.01-.05-.01-.09-.03-.19-.05-.28-.07-.04-.01-.08-.02-.11-.02-.14-.03-.3-.05-.45-.07-.16-.01-.31-.02-.47-.02s-.31,.01-.47,.02c-.16,.02-.31,.04-.45,.07-.03,0-.07,.01-.11,.02-.09,.02-.19,.04-.28,.07-.02,0-.04,0-.05,.01-.14,.04-.29,.08-.42,.14-.14,.05-.28,.11-.41,.19-.13,.06-.26,.13-.38,.22-.12,.07-.25,.16-.37,.25-.1,.07-.2,.16-.29,.24-.04,.03-.08,.06-.11,.1-.07,.06-.14,.13-.22,.22-.71,.77-1.19,1.75-1.31,2.84H15.13c-.02-.14-.04-.3-.08-.45-.03-.17-.07-.33-.12-.49-.02-.09-.06-.2-.1-.29-.23-.61-.57-1.15-1.01-1.61-.06-.07-.13-.14-.22-.22-.03-.04-.07-.07-.11-.1-.09-.08-.19-.17-.29-.24-.11-.09-.24-.18-.36-.25-.14-.09-.3-.18-.47-.26-.11-.05-.22-.1-.33-.14-.13-.05-.28-.1-.42-.14-.23-.07-.48-.12-.71-.16-.08-.01-.17-.02-.26-.02-.13-.01-.27-.02-.4-.02-.16,0-.31,.01-.47,.02-.16,.02-.31,.04-.45,.07-.03,0-.07,.01-.11,.02-.09,.02-.19,.04-.28,.07-.02,0-.04,0-.05,.01-.14,.04-.29,.08-.42,.14-.14,.05-.28,.11-.41,.19-.12,.06-.26,.13-.38,.22-.12,.07-.25,.16-.36,.25-.12,.08-.24,.18-.34,.28-.1,.09-.2,.19-.3,.29-.03,.03-.07,.07-.1,.11-.06,.07-.13,.16-.2,.24-.04,.05-.08,.1-.12,.17-.04,.05-.08,.11-.1,.17-.13,.21-.26,.41-.35,.63-.03,.06-.06,.13-.08,.2-.11,.28-.21,.57-.26,.87-.04,.16-.06,.31-.08,.45H1.41v-9.22H30.71V11.67h8.35l5.27,5.27Z"/></g><g><circle class="cls-1" cx="36.72" cy="31.66" r="3.88"/><path class="cls-1" d="M41.61,31.15c-.12-1.1-.6-2.08-1.31-2.84-.07-.07-.14-.14-.22-.22-.03-.04-.07-.07-.11-.1-.09-.08-.19-.17-.29-.24-.12-.09-.25-.18-.37-.25-.12-.08-.25-.16-.38-.22-.13-.07-.27-.13-.41-.19-.13-.05-.28-.1-.42-.14-.01-.01-.03-.01-.05-.01-.09-.03-.19-.05-.28-.07-.04-.01-.08-.02-.11-.02-.14-.03-.3-.05-.45-.07-.16-.01-.31-.02-.47-.02s-.31,.01-.47,.02c-.16,.02-.31,.04-.45,.07-.03,0-.07,.01-.11,.02-.09,.02-.19,.04-.28,.07-.02,0-.04,0-.05,.01-.14,.04-.29,.09-.42,.14-.14,.05-.28,.11-.41,.19-.13,.06-.26,.13-.38,.22-.12,.07-.25,.16-.37,.25-.1,.07-.2,.16-.29,.24-.04,.03-.08,.06-.11,.1-.07,.06-.14,.13-.22,.22-.71,.77-1.19,1.75-1.31,2.84-.01,.18-.02,.34-.02,.52s.01,.34,.02,.52c.26,2.46,2.36,4.39,4.89,4.39s4.63-1.93,4.89-4.39c.01-.18,.02-.34,.02-.52s-.01-.34-.02-.52Zm-4.89,4.39c-2.14,0-3.88-1.74-3.88-3.88s1.74-3.88,3.88-3.88,3.88,1.74,3.88,3.88-1.74,3.88-3.88,3.88Z"/></g><g><path class="cls-1" d="M14.12,31.66c0,2.14-1.75,3.88-3.89,3.88s-3.88-1.74-3.88-3.88,1.75-3.88,3.88-3.88,3.89,1.74,3.89,3.88Z"/><path class="cls-1" d="M15.13,31.15h-.01c-.02-.16-.04-.31-.07-.45-.03-.17-.07-.33-.12-.49-.03-.1-.06-.2-.1-.29-.23-.61-.57-1.15-1.01-1.61-.06-.07-.13-.14-.22-.22-.03-.04-.07-.07-.11-.1-.09-.08-.19-.17-.29-.24-.11-.09-.24-.18-.36-.25-.14-.09-.3-.18-.47-.26-.11-.05-.22-.1-.33-.14-.13-.05-.28-.1-.42-.14-.23-.07-.48-.12-.71-.16-.08-.01-.17-.02-.26-.02-.13-.01-.27-.02-.4-.02-.16,0-.31,.01-.47,.02-.16,.02-.31,.04-.45,.07-.03,0-.07,.01-.11,.02-.09,.02-.19,.04-.28,.07-.02,0-.04,0-.05,.01-.14,.04-.29,.09-.42,.14-.14,.05-.28,.11-.41,.19-.12,.06-.26,.13-.38,.22-.12,.07-.25,.16-.36,.25-.12,.08-.24,.18-.34,.28-.1,.09-.2,.19-.3,.29-.03,.03-.07,.07-.1,.11-.06,.07-.13,.16-.2,.24-.04,.05-.08,.1-.12,.17-.04,.05-.07,.1-.1,.17-.13,.21-.26,.41-.35,.63-.03,.06-.06,.13-.08,.2-.11,.28-.21,.57-.26,.87-.03,.14-.05,.3-.07,.45h-.01c-.01,.18-.02,.34-.02,.52s.01,.34,.02,.52c.26,2.46,2.36,4.39,4.89,4.39s4.63-1.93,4.9-4.39c.01-.18,.02-.34,.02-.52s-.01-.34-.02-.52Zm-4.9,4.39c-2.13,0-3.88-1.74-3.88-3.88s1.75-3.88,3.88-3.88,3.89,1.74,3.89,3.88-1.75,3.88-3.89,3.88Z"/><path class="cls-1" d="M5.42,30.69c-.03,.14-.05,.3-.07,.45h-.01c.02-.14,.04-.3,.08-.45Z"/><path class="cls-1" d="M15.13,31.15h-.01c-.02-.16-.04-.31-.07-.45,.04,.16,.06,.31,.08,.45Z"/></g><rect class="cls-1" x="1.41" y="1.41" width="28.27" height="19.48"/></g></g></svg>